# xmcd
#
# Track frame offsets:
# 150
# 14781
# 25700
# 42238
# 55972
# 68310
# 86257
# 97630
# 111197
# 125343
# 147437
# 158368
# 175649
# 188120
# 199117
#
# Disc length: 2800 seconds
#
#
# Revision: 0
# Processed by: cddbd v1.5.2PL0 Copyright (c) Steve Scherf et al.
# Submitted via: FreeRIP 2.951 
#
DISCID=b30aee0f
DTITLE=V. H. S. REBEL - Rychle a zbìsile
DYEAR=2007
DGENRE=Bluegrass
TTITLE0=do tøetice
TTITLE1=Kalný vody
TTITLE2=Hotel Hilary
TTITLE3=Batalion
TTITLE4=Obzorem pádí
TTITLE5=Arizona
TTITLE6=Dost èasu
TTITLE7=Já písnièka
TTITLE8=Karolína
TTITLE9=Harley
TTITLE10=Vichøice
TTITLE11=Mùj dùm
TTITLE12=Tenhle kùò
TTITLE13=Vyznání
TTITLE14=Køídla
EXTD=
EXTT0=J. Mareèek - J. Mareèek
EXTT1=
EXTT2=
EXTT3=
EXTT4=
EXTT5=
EXTT6=
EXTT7=
EXTT8=
EXTT9=O. Dvoøák - O. Dvoøák
EXTT10=
EXTT11=
EXTT12=
EXTT13=J. Buriánek - I. Dondová
EXTT14=
PLAYORDER=
